<?xml version="1.0" encoding="utf-8"?>
<!-- Generator: Adobe Illustrator 16.0.0, SVG Export Plug-In . SVG Version: 6.00 Build 0)  -->
<!DOCTYPE svg PUBLIC "-//W3C//DTD SVG 1.1//EN" "http://www.w3.org/Graphics/SVG/1.1/DTD/svg11.dtd">
<svg version="1.1" id="Layer_1" xmlns="http://www.w3.org/2000/svg" xmlns:xlink="http://www.w3.org/1999/xlink" x="0px" y="0px"
	 width="66px" height="66px" viewBox="0 0 66 66" enable-background="new 0 0 66 66" xml:space="preserve">
<g>
	<g>
		<g>
			<g>
				
					<linearGradient id="SVGID_1_" gradientUnits="userSpaceOnUse" x1="-1703.7793" y1="4682.0713" x2="-1719.1392" y2="4741.3604" gradientTransform="matrix(0.7071 0.7071 -0.7071 0.7071 4554.4517 -2075.3191)">
					<stop  offset="0" style="stop-color:#29D3DA"/>
					<stop  offset="0.5188" style="stop-color:#0077FF"/>
					<stop  offset="0.9991" style="stop-color:#064093"/>
					<stop  offset="1" style="stop-color:#084698"/>
				</linearGradient>
				<path fill="url(#SVGID_1_)" d="M31.65,32.64L10.132,54.157c0,0-4.599-6.299,3.284-13.942C22.773,31.142,31.65,32.64,31.65,32.64
					z"/>
				
					<linearGradient id="SVGID_2_" gradientUnits="userSpaceOnUse" x1="-1690.998" y1="4689.9609" x2="-1714.3956" y2="4710.6587" gradientTransform="matrix(0.7071 0.7071 -0.7071 0.7071 4554.4517 -2075.3191)">
					<stop  offset="0" style="stop-color:#29D3DA"/>
					<stop  offset="0.5188" style="stop-color:#0077FF"/>
					<stop  offset="0.9991" style="stop-color:#064093"/>
					<stop  offset="1" style="stop-color:#084698"/>
				</linearGradient>
				<path fill="url(#SVGID_2_)" d="M31.648,32.636l-21.518,21.52c0,0,6.298,4.597,13.942-3.286
					C33.144,41.515,31.648,32.636,31.648,32.636z"/>
			</g>
			<g>
				
					<linearGradient id="SVGID_3_" gradientUnits="userSpaceOnUse" x1="4533.9121" y1="-2098.0361" x2="4513.3677" y2="-2018.7334" gradientTransform="matrix(0.7071 -0.7071 0.7071 0.7071 -1723.9685 4690.23)">
					<stop  offset="0.0124" style="stop-color:#E0B386"/>
					<stop  offset="0.5188" style="stop-color:#DA498C"/>
					<stop  offset="1" style="stop-color:#961484"/>
				</linearGradient>
				<path fill="url(#SVGID_3_)" d="M1.123,10.632l28.783,28.781c0,0-8.425,6.15-18.649-4.392
					C-0.878,22.506,1.123,10.632,1.123,10.632z"/>
				
					<linearGradient id="SVGID_4_" gradientUnits="userSpaceOnUse" x1="4551.0078" y1="-2087.4834" x2="4519.7104" y2="-2059.7974" gradientTransform="matrix(0.7071 -0.7071 0.7071 0.7071 -1723.9685 4690.23)">
					<stop  offset="0.0124" style="stop-color:#E0B386"/>
					<stop  offset="0.5188" style="stop-color:#DA498C"/>
					<stop  offset="1" style="stop-color:#961484"/>
				</linearGradient>
				<path fill="url(#SVGID_4_)" d="M1.122,10.636l28.781,28.781c0,0,6.15-8.425-4.393-18.649
					C12.995,8.632,1.122,10.636,1.122,10.636z"/>
			</g>
			<linearGradient id="SVGID_5_" gradientUnits="userSpaceOnUse" x1="6.9341" y1="37.6826" x2="6.58" y2="45.4723">
				<stop  offset="0.0124" style="stop-color:#E0B386"/>
				<stop  offset="0.5188" style="stop-color:#DA498C"/>
				<stop  offset="1" style="stop-color:#961484"/>
			</linearGradient>
			<path fill="url(#SVGID_5_)" d="M7.631,38.808c0,0.411-0.334,0.745-0.748,0.745c-0.413,0-0.748-0.334-0.748-0.745
				c0-0.416,0.335-0.75,0.748-0.75C7.297,38.058,7.631,38.392,7.631,38.808z"/>
			<linearGradient id="SVGID_6_" gradientUnits="userSpaceOnUse" x1="8.375" y1="40.3271" x2="8.1475" y2="45.3321">
				<stop  offset="0.0124" style="stop-color:#E0B386"/>
				<stop  offset="0.5188" style="stop-color:#DA498C"/>
				<stop  offset="1" style="stop-color:#961484"/>
			</linearGradient>
			<circle fill="url(#SVGID_6_)" cx="8.343" cy="41.049" r="0.481"/>
			<linearGradient id="SVGID_7_" gradientUnits="userSpaceOnUse" x1="7.8379" y1="35.4941" x2="7.6357" y2="39.9421">
				<stop  offset="0" style="stop-color:#29D3DA"/>
				<stop  offset="0.5188" style="stop-color:#0077FF"/>
				<stop  offset="0.9991" style="stop-color:#064093"/>
				<stop  offset="1" style="stop-color:#084698"/>
			</linearGradient>
			<circle fill="url(#SVGID_7_)" cx="7.809" cy="36.135" r="0.428"/>
			<linearGradient id="SVGID_8_" gradientUnits="userSpaceOnUse" x1="5.9165" y1="42.7842" x2="5.3348" y2="55.5813">
				<stop  offset="0" style="stop-color:#29D3DA"/>
				<stop  offset="0.5188" style="stop-color:#0077FF"/>
				<stop  offset="0.9991" style="stop-color:#064093"/>
				<stop  offset="1" style="stop-color:#084698"/>
			</linearGradient>
			<circle fill="url(#SVGID_8_)" cx="5.833" cy="44.627" r="1.228"/>
			<linearGradient id="SVGID_9_" gradientUnits="userSpaceOnUse" x1="4.3076" y1="28.4688" x2="3.5233" y2="45.7241">
				<stop  offset="0.0124" style="stop-color:#E0B386"/>
				<stop  offset="0.5188" style="stop-color:#DA498C"/>
				<stop  offset="1" style="stop-color:#961484"/>
			</linearGradient>
			<circle fill="url(#SVGID_9_)" cx="4.195" cy="30.953" r="1.656"/>
		</g>
		<g>
			<g>
				
					<linearGradient id="SVGID_10_" gradientUnits="userSpaceOnUse" x1="5065.7959" y1="-2087.5049" x2="5050.4365" y2="-2028.2166" gradientTransform="matrix(-0.7071 0.7071 0.7071 0.7071 5084.0854 -2075.3191)">
					<stop  offset="0" style="stop-color:#29D3DA"/>
					<stop  offset="0.5188" style="stop-color:#0077FF"/>
					<stop  offset="0.9991" style="stop-color:#064093"/>
					<stop  offset="1" style="stop-color:#084698"/>
				</linearGradient>
				<path fill="url(#SVGID_10_)" d="M33.352,32.64l21.518,21.518c0,0,4.597-6.299-3.284-13.942
					C42.229,31.142,33.352,32.64,33.352,32.64z"/>
				
					<linearGradient id="SVGID_11_" gradientUnits="userSpaceOnUse" x1="5078.5801" y1="-2079.6152" x2="5055.1812" y2="-2058.9163" gradientTransform="matrix(-0.7071 0.7071 0.7071 0.7071 5084.0854 -2075.3191)">
					<stop  offset="0" style="stop-color:#29D3DA"/>
					<stop  offset="0.5188" style="stop-color:#0077FF"/>
					<stop  offset="0.9991" style="stop-color:#064093"/>
					<stop  offset="1" style="stop-color:#084698"/>
				</linearGradient>
				<path fill="url(#SVGID_11_)" d="M33.354,32.636l21.518,21.52c0,0-6.298,4.597-13.942-3.286
					C31.856,41.515,33.354,32.636,33.354,32.636z"/>
			</g>
			<g>
				
					<linearGradient id="SVGID_12_" gradientUnits="userSpaceOnUse" x1="11303.4883" y1="4671.542" x2="11282.9443" y2="4750.8433" gradientTransform="matrix(-0.7071 -0.7071 -0.7071 0.7071 11362.5059 4690.23)">
					<stop  offset="0.0124" style="stop-color:#E0B386"/>
					<stop  offset="0.5188" style="stop-color:#DA498C"/>
					<stop  offset="1" style="stop-color:#961484"/>
				</linearGradient>
				<path fill="url(#SVGID_12_)" d="M63.877,10.632L35.096,39.413c0,0,8.425,6.15,18.649-4.392
					C65.88,22.506,63.877,10.632,63.877,10.632z"/>
				
					<linearGradient id="SVGID_13_" gradientUnits="userSpaceOnUse" x1="11320.5859" y1="4682.0938" x2="11289.2881" y2="4709.7798" gradientTransform="matrix(-0.7071 -0.7071 -0.7071 0.7071 11362.5059 4690.23)">
					<stop  offset="0.0124" style="stop-color:#E0B386"/>
					<stop  offset="0.5188" style="stop-color:#DA498C"/>
					<stop  offset="1" style="stop-color:#961484"/>
				</linearGradient>
				<path fill="url(#SVGID_13_)" d="M63.88,10.636L35.099,39.417c0,0-6.152-8.425,4.392-18.649
					C52.007,8.632,63.88,10.636,63.88,10.636z"/>
			</g>
			
				<linearGradient id="SVGID_14_" gradientUnits="userSpaceOnUse" x1="9580.4707" y1="37.6836" x2="9580.1172" y2="45.4707" gradientTransform="matrix(-1 0 0 1 9638.5371 0)">
				<stop  offset="0.0124" style="stop-color:#E0B386"/>
				<stop  offset="0.5188" style="stop-color:#DA498C"/>
				<stop  offset="1" style="stop-color:#961484"/>
			</linearGradient>
			<path fill="url(#SVGID_14_)" d="M57.371,38.808c0,0.411,0.334,0.745,0.748,0.745c0.413,0,0.748-0.334,0.748-0.745
				c0-0.416-0.334-0.75-0.748-0.75C57.705,38.058,57.371,38.392,57.371,38.808z"/>
			
				<linearGradient id="SVGID_15_" gradientUnits="userSpaceOnUse" x1="9581.9121" y1="40.3271" x2="9581.6846" y2="45.3321" gradientTransform="matrix(-1 0 0 1 9638.5371 0)">
				<stop  offset="0.0124" style="stop-color:#E0B386"/>
				<stop  offset="0.5188" style="stop-color:#DA498C"/>
				<stop  offset="1" style="stop-color:#961484"/>
			</linearGradient>
			<circle fill="url(#SVGID_15_)" cx="56.657" cy="41.049" r="0.481"/>
			
				<linearGradient id="SVGID_16_" gradientUnits="userSpaceOnUse" x1="9581.375" y1="35.4941" x2="9581.1729" y2="39.9447" gradientTransform="matrix(-1 0 0 1 9638.5371 0)">
				<stop  offset="0" style="stop-color:#29D3DA"/>
				<stop  offset="0.5188" style="stop-color:#0077FF"/>
				<stop  offset="0.9991" style="stop-color:#064093"/>
				<stop  offset="1" style="stop-color:#084698"/>
			</linearGradient>
			<circle fill="url(#SVGID_16_)" cx="57.192" cy="36.135" r="0.427"/>
			
				<linearGradient id="SVGID_17_" gradientUnits="userSpaceOnUse" x1="9579.4512" y1="42.7842" x2="9578.8691" y2="55.5813" gradientTransform="matrix(-1 0 0 1 9638.5371 0)">
				<stop  offset="0" style="stop-color:#29D3DA"/>
				<stop  offset="0.5188" style="stop-color:#0077FF"/>
				<stop  offset="0.9991" style="stop-color:#064093"/>
				<stop  offset="1" style="stop-color:#084698"/>
			</linearGradient>
			<circle fill="url(#SVGID_17_)" cx="59.168" cy="44.627" r="1.229"/>
			
				<linearGradient id="SVGID_18_" gradientUnits="userSpaceOnUse" x1="9577.8438" y1="28.4678" x2="9577.0596" y2="45.7256" gradientTransform="matrix(-1 0 0 1 9638.5371 0)">
				<stop  offset="0.0124" style="stop-color:#E0B386"/>
				<stop  offset="0.5188" style="stop-color:#DA498C"/>
				<stop  offset="1" style="stop-color:#961484"/>
			</linearGradient>
			<circle fill="url(#SVGID_18_)" cx="60.806" cy="30.953" r="1.656"/>
		</g>
	</g>
	<g>
		<linearGradient id="SVGID_19_" gradientUnits="userSpaceOnUse" x1="32.501" y1="57.5332" x2="32.501" y2="21.0055">
			<stop  offset="0" style="stop-color:#29D3DA"/>
			<stop  offset="0.5188" style="stop-color:#0077FF"/>
			<stop  offset="0.9991" style="stop-color:#064093"/>
			<stop  offset="1" style="stop-color:#084698"/>
		</linearGradient>
		<path fill="url(#SVGID_19_)" d="M37.945,41.731c0.121-7.889-5.381-8.792-5.443-8.8V32.93H32.5l0,0v0.002
			c-0.062,0.008-5.566,0.911-5.443,8.8c0.144,9.388,5.412,13.162,5.443,13.184v0.004v-0.002l0.002,0.002v-0.004
			C32.533,54.894,37.801,51.119,37.945,41.731z"/>
		<linearGradient id="SVGID_20_" gradientUnits="userSpaceOnUse" x1="55.3433" y1="44.1396" x2="29.5939" y2="43.8974">
			<stop  offset="0" style="stop-color:#29D3DA"/>
			<stop  offset="0.5188" style="stop-color:#0077FF"/>
			<stop  offset="0.9991" style="stop-color:#064093"/>
			<stop  offset="1" style="stop-color:#084698"/>
		</linearGradient>
		<path fill="url(#SVGID_20_)" d="M32.5,54.915v0.004v-0.002l0.002,0.002v-0.004c0.031-0.021,5.299-3.796,5.443-13.184
			c0.121-7.889-5.381-8.792-5.443-8.8V32.93H32.5l0,0v0.002"/>
		<g>
			<linearGradient id="SVGID_21_" gradientUnits="userSpaceOnUse" x1="32.501" y1="28.7749" x2="32.501" y2="41.574">
				<stop  offset="0.0124" style="stop-color:#E0B386"/>
				<stop  offset="0.5188" style="stop-color:#DA498C"/>
				<stop  offset="1" style="stop-color:#961484"/>
			</linearGradient>
			<path fill="url(#SVGID_21_)" d="M32.5,36.075v-0.002l0,0h0.002v0.002c0.058,0.008,4.752,0.79,5.37,7.135
				c0.037-0.479,0.065-0.967,0.073-1.479c0.121-7.889-5.381-8.792-5.443-8.8V32.93H32.5l0,0v0.002
				c-0.062,0.008-5.566,0.911-5.443,8.8c0.008,0.512,0.037,1,0.073,1.479C27.748,36.865,32.442,36.083,32.5,36.075z"/>
			<linearGradient id="SVGID_22_" gradientUnits="userSpaceOnUse" x1="37.8716" y1="46.3535" x2="37.8716" y2="46.3535">
				<stop  offset="0.0124" style="stop-color:#E0B386"/>
				<stop  offset="0.5188" style="stop-color:#DA498C"/>
				<stop  offset="1" style="stop-color:#961484"/>
			</linearGradient>
			<path fill="url(#SVGID_22_)" d="M37.872,46.354"/>
			<linearGradient id="SVGID_23_" gradientUnits="userSpaceOnUse" x1="32.501" y1="36.1406" x2="32.501" y2="45.6164">
				<stop  offset="0.0124" style="stop-color:#E0B386"/>
				<stop  offset="0.5188" style="stop-color:#DA498C"/>
				<stop  offset="1" style="stop-color:#961484"/>
			</linearGradient>
			<path fill="url(#SVGID_23_)" d="M32.502,39.217L32.502,39.217H32.5l0,0l0,0c-0.054,0.008-4.072,0.685-5.164,5.803
				c0.102,0.642,0.234,1.235,0.381,1.809c1.434-3.902,4.737-4.46,4.783-4.468l0,0l0,0h0.002l0,0
				c0.046,0.008,3.347,0.565,4.783,4.468c0.146-0.573,0.279-1.167,0.381-1.809C36.572,39.901,32.554,39.225,32.502,39.217z"/>
			<linearGradient id="SVGID_24_" gradientUnits="userSpaceOnUse" x1="32.5" y1="43.4209" x2="32.5" y2="49.8329">
				<stop  offset="0.0124" style="stop-color:#E0B386"/>
				<stop  offset="0.5188" style="stop-color:#DA498C"/>
				<stop  offset="1" style="stop-color:#961484"/>
			</linearGradient>
			<path fill="url(#SVGID_24_)" d="M32.5,48.647v-0.002l0,0h0.002v0.002c0.035,0.003,1.827,0.302,3.347,2.005
				c0.304-0.585,0.594-1.23,0.857-1.947c-1.592-2.769-4.164-3.195-4.205-3.201v-0.002H32.5l0,0v0.002
				c-0.042,0.006-2.613,0.433-4.207,3.201c0.263,0.717,0.556,1.362,0.857,1.947C30.671,48.949,32.465,48.65,32.5,48.647z"/>
			<linearGradient id="SVGID_25_" gradientUnits="userSpaceOnUse" x1="32.501" y1="50.5225" x2="32.501" y2="54.4203">
				<stop  offset="0.0124" style="stop-color:#E0B386"/>
				<stop  offset="0.5188" style="stop-color:#DA498C"/>
				<stop  offset="1" style="stop-color:#961484"/>
			</linearGradient>
			<path fill="url(#SVGID_25_)" d="M32.5,54.915v0.004v-0.002l0.002,0.002v-0.004c0.014-0.008,0.977-0.706,2.088-2.217
				c-1.105-0.74-2.061-0.906-2.088-0.91l0,0H32.5l0,0l0,0c-0.027,0.004-0.984,0.17-2.088,0.91
				C31.523,54.209,32.486,54.907,32.5,54.915z"/>
		</g>
	</g>
	<linearGradient id="SVGID_26_" gradientUnits="userSpaceOnUse" x1="32.5" y1="36.0361" x2="32.5" y2="30.2233">
		<stop  offset="0.0124" style="stop-color:#E0B386"/>
		<stop  offset="0.5188" style="stop-color:#DA498C"/>
		<stop  offset="1" style="stop-color:#961484"/>
	</linearGradient>
	<path fill="url(#SVGID_26_)" d="M35.17,30.546c0,1.475-1.196,2.67-2.67,2.67s-2.67-1.195-2.67-2.67s1.196-3.739,2.67-3.739
		S35.17,29.071,35.17,30.546z"/>
</g>
</svg>
